<svg xmlns="http://www.w3.org/2000/svg" viewBox="0 0 252.74 285.35"><defs><style>.cls-1{fill:#e6e6e6;}.cls-1,.cls-4,.cls-5{stroke:#010101;stroke-linecap:round;stroke-linejoin:round;}.cls-1,.cls-5{stroke-width:4px;}.cls-2,.cls-3{fill:#010101;}.cls-2{fill-opacity:0.31;}.cls-4,.cls-6{fill:#fff;}.cls-4{stroke-width:1.85px;}.cls-5{fill:#666;}.cls-6,.cls-8{stroke:#000;}.cls-6{stroke-width:2.5px;}.cls-7{font-size:25px;font-family:NovaMono;}.cls-8{fill:none;stroke-miterlimit:10;stroke-width:9px;}</style></defs><title>bigg-monitor</title><g id="Layer_2" data-name="Layer 2"><g id="Layer_1-2" data-name="Layer 1"><g id="imagebot_2" data-name="imagebot 2"><g id="imagebot_63" data-name="imagebot 63"><path id="imagebot_52" data-name="imagebot 52" class="cls-1" d="M206.19,111.39c26,44.46,10.38,102-35,128.58S68,252,42,207.53l0-.06c-26-44.46-10.38-102,35-128.58s103.2-12,129.23,32.44l0,.06Z"/><path id="imagebot_51" data-name="imagebot 51" class="cls-2" d="M77,78.93a96,96,0,0,0-37.22,39.34A57.26,57.26,0,0,0,135,66.12,95.91,95.91,0,0,0,77,78.93Z"/><path id="imagebot_50" data-name="imagebot 50" class="cls-2" d="M77,78.92A96.24,96.24,0,0,0,54.16,97.4,115.84,115.84,0,0,1,75,81.82c21.25-12.43,44.45-17.22,65.32-15A95.88,95.88,0,0,0,77,78.92ZM186.67,88a62.88,62.88,0,0,1,9.42,12.33c21.5,36.75,2.16,88.09-43.17,114.61-37.91,22.18-82,20-108-2.79,27.22,40.76,82.59,53.36,126.28,27.8,45.33-26.52,61-84.12,35-128.57A91.81,91.81,0,0,0,186.67,88Z"/><path id="imagebot_49" data-name="imagebot 49" class="cls-1" d="M109.65,214.36C89.1,226.38,82,252.49,93.8,272.64a41.62,41.62,0,0,0,9,10.71l70.4-41.19a41.37,41.37,0,0,0-4.93-13.08c-11.79-20.14-38.05-26.74-58.6-14.72Z"/><g id="imagebot_45" data-name="imagebot 45"><path id="imagebot_48" data-name="imagebot 48" class="cls-1" d="M128.51,254.16c3.75,6.4,2.33,14.2-3.18,17.43s-13,.64-16.75-5.77-2.33-14.21,3.18-17.43S124.77,247.75,128.51,254.16Z"/><path id="imagebot_47" data-name="imagebot 47" class="cls-1" d="M153.52,239.53c3.75,6.4,2.33,14.2-3.18,17.43s-13,.64-16.76-5.77-2.32-14.21,3.19-17.43S149.78,233.12,153.52,239.53Z"/><path id="imagebot_46" data-name="imagebot 46" class="cls-1" d="M141.69,246.45c3.75,6.4,2.33,14.2-3.18,17.43s-13,.64-16.75-5.77-2.33-14.21,3.18-17.43S138,240,141.69,246.45Z"/></g><path id="imagebot_43" data-name="imagebot 43" class="cls-1" d="M184.12,170.79c-20.55,12-27.66,38.15-15.87,58.29a41.25,41.25,0,0,0,9,10.71l70.4-41.19a41.32,41.32,0,0,0-4.93-13.07c-11.78-20.15-38-26.76-58.58-14.74Z"/><g id="imagebot_39" data-name="imagebot 39"><path id="imagebot_42" data-name="imagebot 42" class="cls-1" d="M205.22,209.28c3.75,6.41,2.33,14.2-3.18,17.43s-13,.64-16.75-5.77-2.33-14.21,3.18-17.43S201.48,202.87,205.22,209.28Z"/><path id="imagebot_41" data-name="imagebot 41" class="cls-1" d="M230.23,194.65c3.75,6.41,2.33,14.2-3.18,17.43s-13,.64-16.76-5.77-2.32-14.21,3.19-17.43S226.48,188.25,230.23,194.65Z"/><path id="imagebot_40" data-name="imagebot 40" class="cls-1" d="M218.4,201.57c3.75,6.41,2.33,14.2-3.18,17.43s-13,.64-16.75-5.77-2.33-14.21,3.18-17.43S214.66,195.16,218.4,201.57Z"/></g><path id="imagebot_17" data-name="imagebot 17" class="cls-1" d="M9.84,45.84A15.54,15.54,0,0,0,4.07,67,15.31,15.31,0,0,0,17,74.56,54.66,54.66,0,0,0,24.5,102c15.56,26.6,50.2,35.33,77.32,19.45s36.52-50.35,21-76.94a54.76,54.76,0,0,0-20.21-20,15.33,15.33,0,0,0-.22-15A15.56,15.56,0,0,0,81,4.18a15.75,15.75,0,0,0-7.79,12.93,57.79,57.79,0,0,0-48.3,28.26,15.73,15.73,0,0,0-15.1.47Z"/><g id="imagebot_8" data-name="imagebot 8"><path id="imagebot_16" data-name="imagebot 16" class="cls-3" d="M59.37,76.47c1.37-5.74,16.16-14.42,21.89-12.19,5.44,2.13,4.19,18-2.18,21.08s-21-3.5-19.71-8.88Z"/><g id="imagebot_9" data-name="imagebot 9"><g id="imagebot_13" data-name="imagebot 13"><path id="imagebot_15" data-name="imagebot 15" class="cls-4" d="M87.65,34.64A16,16,0,0,1,60,50.82,16,16,0,0,1,87.65,34.64Z"/><path id="imagebot_14" data-name="imagebot 14" class="cls-3" d="M76.46,44.68a5.18,5.18,0,1,1-7-1.77A5.12,5.12,0,0,1,76.46,44.68Z"/></g><g id="imagebot_10" data-name="imagebot 10"><path id="imagebot_12" data-name="imagebot 12" class="cls-4" d="M57,52.56a16,16,0,1,1-21.76-5.47A15.87,15.87,0,0,1,57,52.56Z"/><path id="imagebot_11" data-name="imagebot 11" class="cls-3" d="M53.2,58.29a5.17,5.17,0,1,1-7-1.77A5.11,5.11,0,0,1,53.2,58.29Z"/></g></g></g><path id="imagebot_7" data-name="imagebot 7" class="cls-2" d="M108.92,28.74a54.25,54.25,0,0,1,5.72,8c15.57,26.6,6.17,61.08-21,76.95A57,57,0,0,1,30.27,110c17.3,20.13,47.4,25.51,71.55,11.37,27.13-15.86,36.52-50.34,21-76.94a55,55,0,0,0-13.86-15.72Z"/><g id="imagebot_4" data-name="imagebot 4"><path id="imagebot_6" data-name="imagebot 6" class="cls-5" d="M84.49,9.72A8.88,8.88,0,0,0,80.1,17a44.44,44.44,0,0,1,16.56,4.16,8.68,8.68,0,0,0-.15-8.41,8.78,8.78,0,0,0-12-3Z"/><path id="imagebot_5" data-name="imagebot 5" class="cls-5" d="M13.1,51.49a8.88,8.88,0,0,1,8.49-.27A44.54,44.54,0,0,0,17.1,67.7a8.65,8.65,0,0,1-4-16.21Z"/></g><polygon id="imagebot_54" data-name="imagebot 54" class="cls-2" points="184.78 166.33 186.81 165.14 186.81 165.14 184.78 166.33"/><rect id="imagebot_57" data-name="imagebot 57" class="cls-6" x="21.06" y="116.66" width="218.5" height="104.64" transform="translate(-67.5 88.93) rotate(-30.33)"/><g id="imagebot_60" data-name="imagebot 60"><path id="imagebot_36" data-name="imagebot 36" class="cls-2" d="M184.49,81.42a18,18,0,1,1-24.44-6.14A17.83,17.83,0,0,1,184.49,81.42Z"/><path id="imagebot_24" data-name="imagebot 24" class="cls-1" d="M187,83.9a18.18,18.18,0,0,1-18,18,17.46,17.46,0,0,1-17.85-17.47,18.2,18.2,0,0,1,17.95-18A17.46,17.46,0,0,1,187,83.9Z"/><g id="imagebot_20" data-name="imagebot 20"><path id="imagebot_23" data-name="imagebot 23" class="cls-1" d="M167.05,90.64c-1.94,3.34-1.13,7.4,1.81,9s6.9.26,8.85-3.09,1.13-7.39-1.81-9S169,87.3,167.05,90.64Z"/><path id="imagebot_22" data-name="imagebot 22" class="cls-1" d="M153.69,83.18c-1.94,3.35-1.13,7.4,1.81,9s6.9.26,8.85-3.08,1.13-7.4-1.81-9S155.63,79.83,153.69,83.18Z"/><path id="imagebot_21" data-name="imagebot 21" class="cls-1" d="M158.44,90.21c-1.95,3.35-1.13,7.39,1.81,9s6.9.26,8.85-3.09,1.13-7.4-1.81-9S160.38,86.86,158.44,90.21Z"/></g></g><g id="imagebot_59" data-name="imagebot 59"><path id="imagebot_37" data-name="imagebot 37" class="cls-2" d="M55.81,160.83a18,18,0,1,1-24.44-6.15A17.81,17.81,0,0,1,55.81,160.83Z"/><path id="imagebot_30" data-name="imagebot 30" class="cls-1" d="M45.09,150.06a17.46,17.46,0,0,1,6.49,24.13A18.19,18.19,0,0,1,27.11,181a17.46,17.46,0,0,1-6.49-24.13,18.19,18.19,0,0,1,24.47-6.84Z"/><g id="imagebot_26" data-name="imagebot 26"><path id="imagebot_29" data-name="imagebot 29" class="cls-1" d="M43.12,166.33c3.88-.05,7,2.64,7,6s-3.15,6.14-7,6.2-7-2.64-7-6S39.24,166.39,43.12,166.33Z"/><path id="imagebot_28" data-name="imagebot 28" class="cls-1" d="M43.16,151c3.88-.06,7,2.63,7,6s-3.16,6.14-7,6.2-7-2.63-7-6S39.28,151.08,43.16,151Z"/><path id="imagebot_27" data-name="imagebot 27" class="cls-1" d="M47,158.61c3.88-.05,7,2.64,7,6s-3.15,6.15-7,6.21-7-2.64-7-6S43.08,158.67,47,158.61Z"/></g></g></g></g><text class="cls-7" transform="translate(44.92 216.22) rotate(-30.33)">OWO Daddy your <tspan x="-7.02" y="30">screen so BIGG!</tspan></text><path class="cls-8" d="M25.27,63.7C23.59,55.51,23.66,42.34,30.13,26"/><path class="cls-8" d="M48.74,18.84c8.21-1.56,21.38-1.3,37.6,5.42"/><circle cx="99.96" cy="90.51" r="12.13"/></g></g></svg>