<svg xmlns="http://www.w3.org/2000/svg" viewBox="0 0 213.8 337.56"><defs><style>.cls-1{fill:#a6e8ff;}</style></defs><title>Asset 12</title><g id="Layer_2" data-name="Layer 2"><g id="Layer_1-2" data-name="Layer 1"><path class="cls-1" d="M182.42.06C134.05,4.78,148,166.5,149.76,184.65c-1.09-6-9.41-26-72.34-19.59C14,171.51-50.08,338.81,58.67,337.56c78-.9,93.62-17.87,96.22-27.39.69,9.45,5.06,25.63,27.53,21.14C213.67,325.06,233.67-4.94,182.42.06ZM93.79,261.7c-12,4.79-14.77,21-15,22.39l0,.11,0-.11a124.14,124.14,0,0,0,0-32.39c-1.52-11.23-6.88-24.37-6.88-24.37S83.79,239.2,95,245.45a51.4,51.4,0,0,0,22.5,6.25S106.29,256.7,93.79,261.7Z"/></g></g></svg>