<svg xmlns="http://www.w3.org/2000/svg" viewBox="0 0 199.69 234.64"><defs><style>.cls-1{fill:#f9c5ff;}</style></defs><title>Asset 9</title><g id="Layer_2" data-name="Layer 2"><g id="Layer_1-2" data-name="Layer 1"><path class="cls-1" d="M184.54,143.57c-25-3.75-90,6.25-90,6.25s118-27.5,104-73.75-39-86.25-114-73.75c-108.33,18.05-118.75,250,5,231.25S209.54,147.32,184.54,143.57Zm-97.79-29.8,0,.11,0-.11a123.64,123.64,0,0,0,0-32.39C85.22,70.14,79.86,57,79.86,57S91.73,68.88,103,75.13a51.4,51.4,0,0,0,22.5,6.25s-11.25,5-23.75,10C89.77,96.16,87,112.38,86.75,113.77Z"/></g></g></svg>