<svg xmlns="http://www.w3.org/2000/svg" viewBox="0 0 164.03 234.64"><defs><style>.cls-1{fill:#ffffb0;}</style></defs><title>Asset 14</title><g id="Layer_2" data-name="Layer 2"><g id="Layer_1-2" data-name="Layer 1"><path class="cls-1" d="M151.59,143.57c-20.53-3.75-73.93,6.25-73.93,6.25s96.92-27.5,85.43-73.75-32-86.25-93.64-73.75c-89,18.05-97.55,250,4.1,231.25S172.13,147.32,151.59,143.57ZM69.87,112v0a123.4,123.4,0,0,0,0-32.39C68.34,68.35,63,55.21,63,55.21S74.86,67.09,86.11,73.34a51.4,51.4,0,0,0,22.5,6.25s-11.25,5-23.75,10C72.89,94.37,70.09,110.59,69.87,112Z"/></g></g></svg>