<svg xmlns="http://www.w3.org/2000/svg" viewBox="0 0 176.21 283.21"><defs><style>.cls-1{fill:#ffc9b8;}</style></defs><title>Asset 13</title><g id="Layer_2" data-name="Layer 2"><g id="Layer_1-2" data-name="Layer 1"><path class="cls-1" d="M71.27,2.63C-6.38,16-23.73,146.38,62.52,143.88c42.6-1.94,57.45-15.88,62-22.06C116.72,135.07,86.27,190,95,223.88c-25-17.5-93.75-46.25-95,3.75S72.52,307.15,116.27,258,245.56-27.39,71.27,2.63ZM87.17,87c-12,4.78-14.77,21-15,22.39l0,.11,0-.11a124.16,124.16,0,0,0,0-32.39c-1.52-11.24-6.88-24.38-6.88-24.38S77.17,64.51,88.42,70.76A51.4,51.4,0,0,0,110.92,77S99.67,82,87.17,87Z"/></g></g></svg>