<svg xmlns="http://www.w3.org/2000/svg" viewBox="0 0 25.72 25.08"><defs><style>.cls-1{fill:#3a5682;fill-rule:evenodd;}</style></defs><title>github-icon</title><g id="Layer_2" data-name="Layer 2"><g id="Layer_1-2" data-name="Layer 1"><path class="cls-1" d="M12.86,0A12.86,12.86,0,0,0,8.79,25.06c.65.12.88-.28.88-.62s0-1.11,0-2.19c-3.57.78-4.33-1.72-4.33-1.72A3.36,3.36,0,0,0,3.9,18.65c-1.17-.8.08-.78.08-.78a2.7,2.7,0,0,1,2,1.32A2.74,2.74,0,0,0,9.7,20.26a2.7,2.7,0,0,1,.81-1.72c-2.85-.32-5.86-1.43-5.86-6.35A5,5,0,0,1,6,8.74,4.64,4.64,0,0,1,6.1,5.33S7.18,5,9.64,6.65a12.27,12.27,0,0,1,6.44,0C18.53,5,19.61,5.33,19.61,5.33a4.67,4.67,0,0,1,.13,3.41,5,5,0,0,1,1.32,3.45c0,4.94-3,6-5.87,6.34a3.08,3.08,0,0,1,.87,2.38c0,1.72,0,3.11,0,3.53s.23.74.88.62A12.86,12.86,0,0,0,12.86,0Z"/></g></g></svg>