<svg xmlns="http://www.w3.org/2000/svg" viewBox="0 0 201.25 235"><defs><style>.cls-1{fill:#a6e8ff;}</style></defs><title>Asset 16</title><g id="Layer_2" data-name="Layer 2"><g id="Layer_1-2" data-name="Layer 1"><path class="cls-1" d="M100.63,0C45.05,0,0,52.61,0,117.5S45.05,235,100.63,235s100.62-52.61,100.62-117.5S156.2,0,100.63,0Zm9.77,134.42c-17.65,7.05-21.78,31-22.1,33l0,.16s0-.07,0-.16a182.39,182.39,0,0,0,0-47.79C86,103.09,78.13,83.71,78.13,83.71s17.52,17.51,34.11,26.73a75.86,75.86,0,0,0,33.2,9.22S128.84,127,110.4,134.42Z"/></g></g></svg>