<svg xmlns="http://www.w3.org/2000/svg" viewBox="0 0 275.89 418.55"><defs><style>.cls-1{fill:#a6e8ff;}</style></defs><title>Asset 4</title><g id="Layer_2" data-name="Layer 2"><g id="Layer_1-2" data-name="Layer 1"><path class="cls-1" d="M136.44,221s76.25,0,96.25-108.75S60.19-36.53,16.44,38.47,25.77,395,65.19,411c105,42.5,56.25-107.5,56.25-107.5S252.69,406,273.94,322.22,136.44,221,136.44,221Zm-25-98.75c-12,4.79-14.77,21-15,22.39v0a123.4,123.4,0,0,0,0-32.39C94.92,101,89.56,87.85,89.56,87.85S101.44,99.72,112.69,106a51.4,51.4,0,0,0,22.5,6.25S123.94,117.22,111.44,122.22Z"/></g></g></svg>