<svg xmlns="http://www.w3.org/2000/svg" viewBox="0 0 23.68 23.66"><defs><style>.cls-1{fill:#3a5682;}</style></defs><title>linkedin-icon</title><g id="Layer_2" data-name="Layer 2"><g id="Layer_1-2" data-name="Layer 1"><path class="cls-1" d="M1.55,0H22.12s.05,0,.08,0a1.71,1.71,0,0,1,1.47,1.83c0,6.65,0,13.31,0,20a1.81,1.81,0,0,1-1.85,1.84h-20A1.72,1.72,0,0,1,0,21.82V1.75A1.7,1.7,0,0,1,1.3.07Zm11.1,10.4a.37.37,0,0,1-.06-.27c0-.33,0-.67,0-1s-.07-.26-.27-.26q-1.42,0-2.85,0c-.21,0-.26.08-.26.27V19.89c0,.21.07.26.27.26h3c.29,0,.29,0,.29-.29V14.42a6.2,6.2,0,0,1,0-.86,1.88,1.88,0,0,1,2-1.88,1.57,1.57,0,0,1,1.76,1.25,5.39,5.39,0,0,1,.16,1.39c0,1.86,0,3.71,0,5.57,0,.2.07.26.27.26h3c.23,0,.28-.07.28-.29,0-1.95,0-3.9,0-5.85a10.08,10.08,0,0,0-.3-2.79A3.25,3.25,0,0,0,17.4,8.76a6.23,6.23,0,0,0-1.55-.16,3.62,3.62,0,0,0-2.53,1A4.13,4.13,0,0,0,12.65,10.4ZM3.5,14.53c0,1.78,0,3.56,0,5.34,0,.2,0,.28.27.28h3c.2,0,.25-.07.25-.26V9.12c0-.2-.06-.25-.25-.25-1,0-2,0-3,0-.23,0-.28.07-.28.29C3.51,11,3.5,12.74,3.5,14.53Zm1.77-7.2a2,2,0,1,0-2-2A2,2,0,0,0,5.27,7.33Z"/></g></g></svg>