<?xml version="1.0" encoding="utf-8"?>
<!-- Generator: Adobe Illustrator 24.0.2, SVG Export Plug-In . SVG Version: 6.00 Build 0)  -->
<svg version="1.1"
	 id="svg1512" xmlns:cc="http://creativecommons.org/ns#" xmlns:dc="http://purl.org/dc/elements/1.1/" xmlns:inkscape="http://www.inkscape.org/namespaces/inkscape" xmlns:rdf="http://www.w3.org/1999/02/22-rdf-syntax-ns#" xmlns:sodipodi="http://sodipodi.sourceforge.net/DTD/sodipodi-0.dtd" xmlns:svg="http://www.w3.org/2000/svg"
	 xmlns="http://www.w3.org/2000/svg" xmlns:xlink="http://www.w3.org/1999/xlink" x="0px" y="0px" viewBox="0 0 429 164.6"
	 style="enable-background:new 0 0 429 164.6;" xml:space="preserve">
<style type="text/css">
	.st0{fill:#3A5682;}
</style>
<sodipodi:namedview  bordercolor="#666666" borderopacity="1.0" fit-margin-bottom="10" fit-margin-left="10" fit-margin-right="10" fit-margin-top="10" id="base" inkscape:current-layer="layer1" inkscape:cx="642.45515" inkscape:cy="-171.18696" inkscape:document-units="mm" inkscape:measure-end="164.907,827.567" inkscape:measure-start="215.162,827.567" inkscape:pageopacity="0.0" inkscape:pageshadow="2" inkscape:window-height="1119" inkscape:window-maximized="0" inkscape:window-width="1619" inkscape:window-x="939" inkscape:window-y="259" inkscape:zoom="0.70710678" pagecolor="#ffffff" showgrid="false">
	</sodipodi:namedview>
<g id="layer1" transform="translate(0.60727372,-51.769323)" inkscape:groupmode="layer" inkscape:label="Layer 1">
	<g id="g6338" transform="translate(0,6.8123391)" inkscape:export-xdpi="96" inkscape:export-ydpi="96">
		<path id="path908" inkscape:connector-curvature="0" class="st0" d="M26.7,70.5c-6.6,0-11.9,5.4-11.9,11.9V161
			c0,6.6,5.4,11.9,11.9,11.9h1.6c2.7,6.6,9.2,11.1,16.5,11.1h0h0c7.3,0,13.7-4.5,16.4-11.1c15.2,0,30.8,0,44.5,0
			c6.3,0,11.5-5.2,11.5-11.5V81.9c0,0,0,0,0,0c0-6.3-5.2-11.4-11.5-11.4l-34.1,0c0,0,0,0,0,0h-0.1C71.5,70.5,31.5,70.5,26.7,70.5
			L26.7,70.5z M71.5,76.1l31.1,0c4.8,0,8.6,3.9,8.6,8.6v73.5c0,4.8-3.9,8.6-8.6,8.6h-24h-1.1h-6v-6v-1.7V134L59,141.1
			c-1.8,1-4-0.3-4-2.3v-30.5c0-2.1,2.2-3.4,4-2.3l12.5,7C71.4,99.7,71.4,89.4,71.5,76.1L71.5,76.1z"/>
	</g>
	<g id="text5967">
		<path id="path9858" class="st0" d="M151.1,157.1V99.8h20.7c4.5,0,8.3,1.5,11.6,4.5c3.3,2.9,5,6.6,5,11.1c0,2.7-0.7,5.1-2.2,7.2
			c-1.4,2.1-3.3,3.7-5.6,4.7v0.3c2.8,1,5.1,2.6,7,5s2.7,5.1,2.7,8.2c0,4.7-1.7,8.6-5.2,11.7c-3.4,3.1-7.5,4.6-12.2,4.6H151.1z
			 M158.4,124.3h13.4c2.8,0,5-0.9,6.6-2.7c1.7-1.9,2.6-3.9,2.6-6.1s-0.8-4.2-2.5-6c-1.6-1.8-3.7-2.7-6.4-2.7h-13.7V124.3z
			 M158.4,150h14.8c2.8,0,5.1-1,6.9-3c1.8-2,2.6-4.1,2.6-6.5c0-2.3-0.9-4.5-2.7-6.4c-1.8-2-4.2-3-7.1-3h-14.5V150z"/>
		<path id="path9860" class="st0" d="M204.6,157.1h-7.4V99.8h7.4V157.1z"/>
		<path id="path9862" class="st0" d="M216.5,122.6c3.8-4,8.6-6,14.5-6c5.9,0,10.7,2,14.5,6c3.8,3.9,5.7,8.9,5.7,14.9
			c0,6-1.9,11-5.7,15c-3.8,3.9-8.6,5.9-14.5,5.9c-5.9,0-10.7-2-14.5-5.9c-3.8-4-5.7-9-5.7-15S212.7,126.5,216.5,122.6z M221.9,147.8
			c2.6,2.6,5.6,3.8,9,3.8s6.5-1.3,9-3.8c2.6-2.6,3.8-6.1,3.8-10.3c0-4.3-1.3-7.7-3.8-10.2c-2.5-2.6-5.5-3.9-9-3.9s-6.5,1.3-9,3.9
			c-2.5,2.6-3.8,6-3.8,10.2S219.4,145.2,221.9,147.8z"/>
		<path id="path9864" class="st0" d="M275.8,158.3c-5.9,0-10.7-2-14.5-5.9c-3.8-4-5.7-9-5.7-15s1.9-10.9,5.7-14.9
			c3.8-4,8.6-6,14.5-6c4.4,0,8,1.1,10.9,3.2s5,4.8,6.3,8.1l-6.7,2.8c-2-4.9-5.7-7.4-11-7.4c-3.3,0-6.1,1.3-8.6,4
			c-2.5,2.7-3.7,6.1-3.7,10.2s1.2,7.5,3.7,10.2c2.5,2.7,5.4,4,8.6,4c5.5,0,9.3-2.5,11.4-7.4l6.6,2.8c-1.3,3.2-3.5,5.9-6.5,8.1
			C283.9,157.3,280.2,158.3,275.8,158.3L275.8,158.3z"/>
		<path id="path9866" class="st0" d="M307,99.8v35.3l17-17.2h9.4v0.3l-15.3,15.3l16,23.3v0.3h-8.9l-12.3-18.5l-5.9,5.9v12.6h-7.4
			V99.8H307z"/>
		<path id="path9868" class="st0" d="M345.6,157.1h-7.4V99.8h7.4V157.1z"/>
		<path id="path9870" class="st0" d="M365,174.3h-7.6l9.1-19.8l-16.2-36.7h8L370,146h0.2l11.4-28.2h8L365,174.3z"/>
	</g>
	
		<g id="g1013" transform="matrix(0.26458333,0,0,0.26458333,-88.287792,27.448057)" inkscape:export-xdpi="96" inkscape:export-ydpi="96">
	</g>
</g>
</svg>
